Coordinates
version=1
nRows=20
nColumns=23
inDegrees=yes

Units are S.I. units (second, meters, Newtons, ...)
If the header above contains a line with 'inDegrees', this indicates whether rotational values are in degrees (yes) or radians (no).

endheader
time	pelvis_tilt	pelvis_list	pelvis_rotation	pelvis_tx	pelvis_ty	pelvis_tz	hip_flexion_r	hip_adduction_r	hip_rotation_r	knee_angle_r	knee_angle_r_beta	ankle_angle_r	subtalar_angle_r	mtp_angle_r	hip_flexion_l	hip_adduction_l	hip_rotation_l	knee_angle_l	knee_angle_l_beta	ankle_angle_l	subtalar_angle_l	mtp_angle_l
     15.00000000	     -5.99311450	      6.30149360	      1.77919793	      2.35718337	      0.96819489	      1.00916380	     18.93723752	     -4.57672646	      3.83068847	    109.86180277	      1.91745018	    -12.77782851	    -22.89310060	      0.00000000	     30.11453750	      6.41884478	     -9.25537447	     52.12913632	      0.90982506	     23.99156409	     -2.14710036	      0.00000000
     15.00666667	     -5.75002938	      6.14824714	      1.91078463	      2.35547460	      0.96749239	      1.00908262	     20.87744257	     -4.53058216	      3.93644435	    110.89582751	      1.93549732	    -12.11580164	    -22.96919684	      0.00000000	     28.44862805	      6.33364731	     -8.86818682	     52.33239841	      0.91337266	     25.47580440	     -1.84939531	      0.00000000
     15.01333333	     -5.94901060	      6.00050377	      1.82555941	      2.35385346	      0.96667092	      1.00934573	     23.40664519	     -4.43762814	      4.21903360	    111.73076915	      1.95006980	    -11.18550760	    -22.37475748	      0.00000000	     27.13849691	      5.88144200	     -9.25694564	     52.39556709	      0.91447516	     26.96329424	     -0.06435567	      0.00000000
     15.02000000	     -5.80363324	      5.78027124	      1.78055977	      2.35271697	      0.96723241	      1.00948140	     25.41873848	     -4.25785315	      4.33012452	    112.07188999	      1.95602348	    -10.39441907	    -22.05015907	      0.00000000	     25.23532073	      5.52538669	     -9.29577246	     51.99973966	      0.90756667	     27.95429695	      0.90992783	      0.00000000
     15.02666667	     -5.62868914	      5.52021963	      1.71432822	      2.35193089	      0.96858045	      1.00960305	     27.31020551	     -4.02387751	      4.35656948	    112.03117074	      1.95531279	     -9.55172108	    -21.59810458	      0.00000000	     23.13323676	      5.15570563	     -9.30305854	     51.25895037	      0.89463746	     28.55063609	      1.77845051	      0.00000000
     15.03333333	     -5.40864628	      5.19794593	      1.60580584	      2.35154023	      0.97070089	      1.00977506	     29.03500510	     -3.69137688	      4.29969875	    111.61182837	      1.94799389	     -8.65354874	    -21.03895382	      0.00000000	     20.83405124	      4.71678575	     -9.34374382	     50.21774041	      0.87646491	     28.86999257	      2.65937763	      0.00000000
     15.04000000	     -5.59962977	      4.83723703	      1.50880313	      2.35120078	      0.97284628	      1.00991616	     31.14878623	     -3.27225340	      4.20826682	    110.90176857	      1.93560101	     -8.00846930	    -20.80368291	      0.00000000	     18.92361454	      4.40232452	     -9.08175540	     48.97522989	      0.85477901	     28.98743090	      3.02473380	      0.00000000
     15.04666667	     -4.84697460	      4.17556491	      1.29256072	      2.35197210	      0.97697168	      1.01036804	     31.91140051	     -2.53015247	      3.79686052	    109.63308983	      1.91345839	     -6.91344479	    -19.93457403	      0.00000000	     15.77548484	      3.40202988	     -9.56211825	     47.46799164	      0.82847274	     29.07863808	      4.73379872	      0.00000000
     15.05333333	     -5.29475247	      3.78201619	      1.12373965	      2.35226210	      0.97973556	      1.01066119	     34.03182978	     -2.02967939	      3.58974398	    108.31413454	      1.89043827	     -6.22019940	    -19.59512458	      0.00000000	     14.00739722	      3.05411920	     -9.42286553	     45.90375510	      0.80117167	     28.97364738	      5.17428436	      0.00000000
     15.06000000	     -4.48058203	      2.88028485	      0.95705006	      2.35384276	      0.98494860	      1.01099894	     34.35616594	     -1.06401249	      2.88236057	    106.36941412	      1.85649650	     -5.09342487	    -18.63905128	      0.00000000	     10.66293451	      1.84776702	     -9.95813009	     44.07393559	      0.76923529	     28.80153988	      7.06924914	      0.00000000
     15.06666667	     -5.24555410	      2.47221515	      0.76984267	      2.35466400	      0.98803730	      1.01141323	     36.52816032	     -0.49575264	      2.59373168	    104.51501509	      1.82413113	     -4.43297520	    -18.39799042	      0.00000000	      9.19432324	      1.51819724	     -9.88337636	     42.32554667	      0.73872015	     28.36069842	      7.55060783	      0.00000000
     15.07333333	     -4.34591232	      1.44042994	      0.57907695	      2.35683448	      0.99423147	      1.01182657	     36.40114540	      0.61275541	      1.74842974	    101.94736171	      1.77931713	     -3.41006083	    -17.62439265	      0.00000000	      5.69305939	      0.24203121	    -10.53644817	     40.18454423	      0.70135261	     27.21919593	      9.09165785	      0.00000000
     15.08000000	     -4.93241541	      1.01004068	      0.29244023	      2.35844815	      0.99822045	      1.01229163	     38.00581069	      1.20489484	      1.39539208	     99.52802506	      1.73709174	     -2.61736560	    -17.14060464	      0.00000000	      3.94731905	     -0.15418765	    -10.89035512	     38.13121585	      0.66551526	     25.32075065	      9.49976446	      0.00000000
     15.08666667	     -4.56285602	      0.30065795	      0.22210157	      2.36087679	      1.00420821	      1.01236255	     38.17914279	      1.90663026	      0.65885389	     96.58002261	      1.68563939	     -1.81721423	    -16.68768606	      0.00000000	      1.04336193	     -0.70494710	    -10.82576059	     35.65822719	      0.62235347	     22.84748758	      9.44178829	      0.00000000
     15.09333333	     -5.32750206	      0.00714385	     -0.10323205	      2.36288146	      1.00830788	      1.01287211	     39.67123982	      2.36428753	      0.35175409	     93.72865753	      1.63587368	     -1.09870072	    -16.32412231	      0.00000000	     -0.43933319	     -0.92184853	    -11.35517400	     33.52264895	      0.58508060	     19.76821792	      9.60088105	      0.00000000
     15.10000000	     -4.95532709	     -0.55486994	     -0.19034238	      2.36568270	      1.01460152	      1.01290846	     39.53220600	      2.94983299	     -0.27592350	     90.34611509	      1.57683717	     -0.42044079	    -16.03721477	      0.00000000	     -3.32615746	     -1.12122649	    -10.95990582	     30.76145887	      0.53688874	     16.14203579	      8.45379806	      0.00000000
     15.10666667	     -5.22758151	     -0.85024523	     -0.43144271	      2.36828811	      1.01973224	      1.01317612	     40.07899750	      3.35230894	     -0.66185365	     86.94268934	      1.51743619	      0.18541142	    -15.77454194	      0.00000000	     -5.34142900	     -1.12917232	    -11.00875263	     28.29691127	      0.49387427	     12.12585438	      7.57277857	      0.00000000
     15.11333333	     -5.56792996	     -1.05586028	     -0.71371097	      2.37093805	      1.02464818	      1.01350148	     40.57915892	      3.69476989	     -0.97770956	     83.37652658	      1.45519491	      0.74667317	    -15.52679586	      0.00000000	     -7.18567744	     -1.02457246	    -11.08085308	     25.91784953	      0.45235181	      7.83371829	      6.42004747	      0.00000000
     15.12000000	     -5.93937282	     -1.13151059	     -1.11685175	      2.37355543	      1.02928587	      1.01398417	     41.01299872	      3.99828520	     -1.13135629	     79.67415941	      1.39057641	      1.25687525	    -15.30321702	      0.00000000	     -8.87779721	     -0.79060618	    -11.38432318	     23.70373823	      0.41370828	      3.43866984	      5.38483946	      0.00000000
     15.12666667	     -6.47692243	     -1.10492146	     -1.55830431	      2.37608207	      1.03341016	      1.01449682	     41.53920062	      4.23484948	     -1.21945748	     75.84656607	      1.32377230	      1.75173340	    -14.98428485	      0.00000000	    -10.19284266	     -0.50402213	    -11.94547084	     21.84561444	      0.38127790	     -0.81494108	      4.40689820	      0.00000000
